<?xml version="1.0" encoding="utf-8"?>
<!-- Generator: Adobe Illustrator 19.2.1, SVG Export Plug-In . SVG Version: 6.00 Build 0)  -->
<svg version="1.1" id="layer" xmlns="http://www.w3.org/2000/svg" xmlns:xlink="http://www.w3.org/1999/xlink" x="0px" y="0px"
	 viewBox="0 0 652 652" style="enable-background:new 0 0 652 652;" xml:space="preserve">
<style type="text/css">
	.st0{fill:#E31E25;}
</style>
<g>
	<path id="SVGID_1_" class="st0" d="M711.4,412.8c2.8,0,5.6,0.6,7.8,1.1c2.2,0.6,4.4,1.7,6.1,3.3c1.7,1.7,2.8,3.3,3.9,5
		s1.1,3.9,1.1,6.1s0,3.9-0.6,5c-0.6,1.7-1.1,2.8-1.7,3.9c-1.1,1.1-1.7,2.2-3.3,2.8c-1.1,0.6-2.8,1.7-3.9,1.7
		c3.9,1.1,6.7,2.8,8.3,5.6c1.7,2.2,2.8,5.6,2.8,8.9c0,3.3-0.6,5.6-1.7,8.3c-1.1,2.2-2.8,4.4-4.4,6.1c-1.7,1.7-4.4,2.8-6.7,3.9
		c-2.8,0.6-5,1.1-8.3,1.1s-5.6-0.6-8.3-1.1c-2.2-0.6-4.4-1.7-6.1-3.3c-1.7-1.7-3.3-3.3-4.4-5c-1.1-2.2-2.2-4.4-3.3-7.2l4.4-1.7
		c0.6-0.6,1.7-0.6,2.2-0.6c0.6,0,1.7,0,2.2,0.6c0.6,0.6,1.1,0.6,1.1,1.1c0.6,1.1,1.1,2.2,1.7,2.8c0.6,1.1,1.1,1.7,2.2,2.8
		c1.1,0.6,1.7,1.1,2.8,1.7s2.8,0.6,3.9,0.6c1.7,0,3.3-0.6,4.4-1.1c1.1-0.6,2.2-1.1,3.3-2.2c1.1-1.1,1.7-2.2,2.2-3.3
		c0.6-1.1,0.6-2.2,0.6-3.3c0-1.7,0-2.8-0.6-3.9s-1.1-2.2-2.2-3.3c-1.1-1.1-2.2-1.7-4.4-2.2c-1.7-0.6-4.4-0.6-7.8-0.6v-7.8
		c2.8,0,5,0,6.7-0.6c1.7-0.6,3.3-1.1,3.9-1.7c0.6-0.6,1.7-1.7,2.2-2.8c0.6-1.1,0.6-2.2,0.6-3.9c0-2.8-0.6-5-2.2-6.7
		c-1.7-1.7-3.9-2.2-6.7-2.2s-4.4,0.6-6.1,2.2c-1.7,1.1-2.8,2.8-3.3,5c-0.6,1.1-0.6,1.7-1.7,2.2c-0.6,0.6-1.1,0.6-2.2,0.6
		c-0.6,0-1.1,0-1.7,0l-5.6-1.1c0.6-2.8,1.1-5.6,2.2-7.8s2.8-3.9,4.4-5.6c1.7-1.7,3.9-2.8,6.1-3.3
		C705.9,413.3,708.6,412.8,711.4,412.8z M633.6,461.1c0.6,0,1.1,0,1.7,0.6l4.4,5c-2.8,3.3-5.6,5.6-9.4,7.2s-7.8,2.2-13.3,2.2
		c-4.4,0-8.9-0.6-12.2-2.2c-3.9-1.7-6.7-3.9-9.4-6.7s-4.4-6.1-6.1-10s-2.2-8.3-2.2-12.8s0.6-8.9,2.2-12.8c1.7-3.9,3.9-7.2,6.7-10
		c2.8-2.8,6.1-5,10-6.7c3.9-1.7,8.3-2.2,12.8-2.2s8.3,0.6,12.2,2.2c3.3,1.7,6.1,3.3,8.9,5.6l-3.9,5.6c0,0.6-0.6,0.6-1.1,1.1
		c-0.6,0-1.1,0.6-1.7,0.6c-0.6,0-1.1,0-2.2-0.6c-0.6-0.6-1.7-1.1-2.8-1.7c-1.1-0.6-2.2-1.1-3.9-1.7c-1.7-0.6-3.9-0.6-6.1-0.6
		c-2.8,0-5.6,0.6-7.8,1.7c-2.2,1.1-4.4,2.2-6.1,4.4c-1.7,1.7-3.3,4.4-3.9,6.7c-0.6,2.2-1.7,5.6-1.7,8.9c0,3.3,0.6,6.7,1.7,9.4
		c1.1,2.8,2.2,5,3.9,6.7c1.7,1.7,3.9,3.3,6.1,4.4c2.2,1.1,5,1.7,7.2,1.7c1.7,0,2.8,0,4.4,0c1.1,0,2.2-0.6,3.3-0.6
		c1.1,0,2.2-1.1,2.8-1.7c1.1-0.6,1.7-1.1,2.8-2.2c0.6,0,0.6-0.6,1.1-0.6C632.5,461.1,633.1,461.1,633.6,461.1z M442.5,452.2H462
		l-7.8-20.6c-0.6-1.1-0.6-2.2-1.1-3.3s-0.6-2.8-1.1-3.9c-0.6,1.7-0.6,2.8-1.1,3.9s-0.6,2.2-1.1,3.3L442.5,452.2z M482.5,475.5h-8.9
		c-1.1,0-1.7,0-2.2-0.6c-0.6-0.6-1.1-1.1-1.1-1.7l-4.4-12.8h-25.6l-4.4,12.8c0,0.6-0.6,1.1-1.1,1.7c-0.6,0.6-1.7,0.6-2.2,0.6h-8.9
		l24.4-61.7h11.7L482.5,475.5z M367,444.4c0-3.3-0.6-6.7-1.1-8.9s-2.2-5-3.9-6.7c-1.7-1.7-3.9-3.3-6.1-4.4s-5-1.7-8.3-1.7h-12.2
		v43.3h12.2c2.8,0,5.6-0.6,8.3-1.7c2.8-1.1,4.4-2.2,6.1-4.4c1.7-1.7,2.8-3.9,3.9-6.7C367,450.5,367,447.8,367,444.4z M378.6,444.4
		c0,4.4-0.6,8.9-2.2,12.2c-1.7,3.9-3.9,7.2-6.1,10c-2.8,2.8-6.1,5-10,6.1c-3.9,1.1-8.3,2.2-12.8,2.2h-23.3v-61.7h23.3
		c4.4,0,8.9,0.6,12.8,2.2s7.2,3.9,10,6.1c2.8,2.8,5,6.1,6.1,10C378.1,436.1,378.6,440,378.6,444.4z M234.7,452.2h19.4l-7.8-20.6
		c-0.6-1.1-0.6-2.2-1.1-3.3c-0.6-1.1-0.6-2.8-1.1-3.9c-0.6,1.7-0.6,2.8-1.1,3.9s-0.6,2.2-1.1,3.3L234.7,452.2z M274.7,475.5h-8.9
		c-1.1,0-1.7,0-2.2-0.6c-0.6-0.6-1.1-1.1-1.7-1.7l-4.4-12.8H232l-4.4,12.8c0,0.6-0.6,1.1-1.1,1.7c-0.6,0.6-1.7,0.6-2.2,0.6h-8.9
		l24.4-61.7h11.7L274.7,475.5z M119.2,413.9c0.6,0,1.1,0,1.1,0s0.6,0,1.1,0c0.6,0,0.6,0.6,0.6,0.6s0.6,0.6,1.1,1.1l32.2,41.1
		c0-1.1,0-2.2,0-2.8c0-1.1,0-1.7,0-2.8v-37.8h10V475h-6.1c-1.1,0-1.7,0-2.2-0.6c-0.6-0.6-1.1-0.6-1.7-1.7l-32.2-41.1
		c0,1.1,0,1.7,0,2.8s0,1.7,0,2.2v37.8h-10v-61.7h6.1V413.9z M24.2,452.2h19.4l-7.8-20.6c-0.6-1.1-0.6-2.2-1.1-3.3
		c-0.6-1.1-0.6-2.8-1.1-3.9c-0.6,1.7-0.6,2.8-1.1,3.9c-0.6,1.1-0.6,2.2-1.1,3.3L24.2,452.2z M64.2,475.5h-8.9c-1.1,0-1.7,0-2.2-0.6
		c-0.6-0.6-1.1-1.1-1.1-1.7l-4.4-12.8H22l-4.4,12.8c0,0.6-0.6,1.1-1.1,1.7c-0.6,0.6-1.7,0.6-2.2,0.6H5.3l24.4-61.7h11.7L64.2,475.5z
		 M-48,461.1c0.6,0,1.1,0,1.7,0.6l4.4,5c-2.8,3.3-5.6,5.6-9.4,7.2s-7.8,2.2-13.3,2.2c-4.4,0-8.9-0.6-12.2-2.2
		c-3.9-1.7-6.7-3.9-9.4-6.7s-4.4-6.1-6.1-10c-1.1-3.9-2.2-8.3-2.2-12.8s0.6-8.9,2.2-12.8c1.7-3.9,3.9-7.2,6.7-10
		c2.8-2.8,6.1-5,10-6.7c3.9-1.7,8.3-2.2,12.8-2.2s8.3,0.6,12.2,2.2c3.3,1.7,6.1,3.3,8.9,5.6l-3.9,5.6c0,0.6-0.6,0.6-1.1,1.1
		c-0.6,0-1.1,0.6-1.7,0.6c-0.6,0-1.1,0-2.2-0.6s-1.7-1.1-2.8-1.7c-1.1-0.6-2.2-1.1-3.9-1.7c-1.7-0.6-3.9-0.6-6.1-0.6
		c-2.8,0-5.6,0.6-7.8,1.7c-2.2,1.1-4.4,2.2-6.1,4.4c-1.7,2.2-3.3,4.4-3.9,6.7c-1.1,2.8-1.7,5.6-1.7,8.9c0,3.3,0.6,6.7,1.7,9.4
		c1.1,2.8,2.2,5,3.9,6.7c1.7,1.7,3.9,3.3,6.1,4.4s5,1.7,7.2,1.7c1.7,0,2.8,0,4.4,0c1.7,0,2.2-0.6,3.3-0.6c1.1-0.6,2.2-1.1,2.8-1.7
		c1.1-0.6,1.7-1.1,2.8-2.2c0.6,0,0.6-0.6,1.1-0.6C-48.6,461.1-48.6,461.1-48,461.1z"/>
</g>
<g>
	<path class="st0" d="M232,143.3c1.1,0,2.2,0.6,3.3,1.1C234.2,143.9,233.1,143.3,232,143.3z"/>
	<path class="st0" d="M236.4,145.5c0.6,0.6,1.7,1.7,1.7,2.8C238.1,147.2,237,146.1,236.4,145.5z"/>
	<path class="st0" d="M234.2,158.9c0,0,0.6,0,0.6-0.6C234.7,158.9,234.7,158.9,234.2,158.9L234.2,158.9z"/>
	<path class="st0" d="M222,273.3L222,273.3c1.1,0,1.7,0,2.8-0.6l0,0C224.2,273.3,223.1,273.3,222,273.3z"/>
	<path class="st0" d="M330.3,82.2c0.6,0.6,0.6,1.1,1.1,1.7C330.9,83.3,330.9,82.8,330.3,82.2z"/>
	<path class="st0" d="M170.3,271.1c1.7-0.6,2.8-1.7,3.9-3.3C173.1,269.4,171.4,270.5,170.3,271.1z"/>
	<path class="st0" d="M330.9,91.6l0.6-0.6C331.4,91.1,330.9,91.1,330.9,91.6L330.9,91.6z"/>
	<path class="st0" d="M229.2,260c-1.1-1.1-2.2-2.2-3.9-3.3C227,257.8,228.1,258.9,229.2,260z"/>
	<path class="st0" d="M314.7,87.2c0,1.1,0,2.2,0.6,3.3C315.3,89.4,314.7,88.3,314.7,87.2L314.7,87.2z"/>
	<path class="st0" d="M236.4,157.8C236.4,157.8,236.4,157.2,236.4,157.8L236.4,157.8C236.4,157.2,236.4,157.8,236.4,157.8z"/>
	<path class="st0" d="M332,87.2L332,87.2c0,1.1,0,2.2-0.6,3.3C332,89.4,332,88.3,332,87.2z"/>
	<path class="st0" d="M186.4,216.1L186.4,216.1c1.1,0,2.2,0,3.3,0.6C188.6,216.6,187.5,216.1,186.4,216.1z"/>
	<path class="st0" d="M186.4,233.3c1.1,0,2.2,0,3.3-0.6C188.6,233.3,187.5,233.3,186.4,233.3L186.4,233.3z"/>
	<path class="st0" d="M175.3,265c0,1.1-0.6,2.2-1.1,3.3C174.7,267.2,174.7,266.1,175.3,265L175.3,265z"/>
	<path class="st0" d="M173.1,257.8L173.1,257.8c-0.6-1.1-1.7-1.7-2.8-2.2C171.4,256.1,172,256.6,173.1,257.8z"/>
	<path class="st0" d="M194.2,227.8L194.2,227.8c0.6-1.1,0.6-1.7,0.6-2.8c0-1.7-0.6-3.3-1.7-5c1.1,1.1,1.7,2.8,1.7,5
		C194.7,226.1,194.7,226.6,194.2,227.8z"/>
	<path class="st0" d="M167,255L167,255c1.1,0,2.2,0,3.3,0.6C169.2,255,168.1,255,167,255z"/>
	<path class="st0" d="M222,256.1L222,256.1c1.1,0,2.2,0,3.3,0.6C224.7,256.6,223.1,256.1,222,256.1z"/>
	<path class="st0" d="M167,272.2c1.1,0,2.2,0,3.3-0.6C169.2,271.6,168.1,272.2,167,272.2L167,272.2z"/>
	<path class="st0" d="M189.7,232.8L189.7,232.8L189.7,232.8L189.7,232.8z"/>
	<path class="st0" d="M193.1,220c-1.1-1.1-2.2-2.2-3.9-3.3C190.9,217.8,192.5,218.9,193.1,220z"/>
	<path class="st0" d="M229.7,268.9L229.7,268.9c0.6-1.1,1.1-2.2,1.1-3.9c0-1.7-0.6-3.3-1.7-5c1.1,1.1,1.7,2.8,1.7,5
		C230.9,266.1,230.3,267.8,229.7,268.9z"/>
	<path class="st0" d="M323.6,95.5c-0.6,0-1.7,0-2.2-0.6l0,0C322,95.5,322.5,95.5,323.6,95.5c0.6,0,1.7,0,2.2-0.6l0,0
		C325.3,95.5,324.2,95.5,323.6,95.5z"/>
	<path class="st0" d="M407,236.6c1.7-0.6,2.8-1.7,3.9-3.3C409.7,235,408.6,236.1,407,236.6z"/>
	<path class="st0" d="M410.9,233.3c1.1-1.1,1.7-2.8,1.7-5s-0.6-3.3-1.7-5c1.1,1.1,1.7,2.8,1.7,5S411.4,232.2,410.9,233.3z"/>
	<path class="st0" d="M404.7,237.2c0.6,0,1.1,0,2.2-0.6C406.4,236.6,405.9,236.6,404.7,237.2L404.7,237.2z"/>
	<path class="st0" d="M410.9,223.9c-0.6-1.1-1.7-2.2-2.8-2.8l0,0C408.6,221.6,409.7,222.8,410.9,223.9z"/>
	<path class="st0" d="M100.3,264.4l13.3,50c1.7-1.1,3.9-1.7,6.1-2.2l-13.3-48.9C104.7,263.9,102.5,264.4,100.3,264.4L100.3,264.4z"
		/>
	<path class="st0" d="M173.6,258.9c0-0.6-0.6-0.6-0.6-1.1l0,0C173.1,257.8,173.6,258.3,173.6,258.9z"/>
	<path class="st0" d="M115.3,248.3c0,0.6,0,1.1,0,1.7c0,1.7-0.6,3.3-1.1,5l37.2,8.3c0-2.2,0.6-4.4,1.7-6.1L115.3,248.3z"/>
	<path class="st0" d="M175.3,265L175.3,265c0-0.6,0-1.1,0-1.7c0-1.7-0.6-3.3-1.7-5c1.1,1.1,1.7,2.8,1.7,5
		C175.3,263.9,175.3,264.4,175.3,265z"/>
	<path class="st0" d="M316.4,92.2c0.6,0.6,1.1,1.7,2.2,2.2C318.1,93.9,317,93.3,316.4,92.2z"/>
	<path class="st0" d="M236.4,157.2L236.4,157.2c0.6-0.6,1.1-1.7,1.7-2.2C238.1,156.1,237.5,156.6,236.4,157.2z"/>
	<path class="st0" d="M407.5,221.1c-0.6,0-0.6-0.6-1.1-0.6C407,221.1,407.5,221.1,407.5,221.1L407.5,221.1z"/>
	<path class="st0" d="M318.6,94.4c0.6,0.6,1.7,1.1,2.2,1.1l0,0C320.3,95,319.7,95,318.6,94.4z"/>
	<path class="st0" d="M224.7,272.8L224.7,272.8h0.6C225.3,272.8,225.3,272.8,224.7,272.8z"/>
	<path class="st0" d="M229.2,166.6l19.4,110.6l0,0l0,0c1.7,7.8,0,10.6-0.6,10.6l0,0c-1.1,0-2.8-1.1-4.4-3.3v-0.6l0,0l-8.9-10.6
		c-1.1,1.7-2.8,3.3-5,4.4l8.9,10.6c2.8,3.9,6.7,6.1,10,6.1c5,0,9.4-5,6.7-18.3l-19.4-110.6c-1.7,0.6-3.3,1.1-5,1.1
		C229.7,166.6,229.7,166.6,229.2,166.6z"/>
	<path class="st0" d="M232,160c0.6,0,1.7-0.6,2.2-1.1l0,0C233.6,159.4,233.1,160,232,160z"/>
	<path class="st0" d="M313.1,97.8l-35,68.3c-1.1,2.2-2.2,2.8-4.4,2.8s-5-1.1-7.8-2.2L245.3,155c-0.6,2.2-1.7,3.9-2.8,5.6l20,11.1
		c3.9,2.2,7.2,3.3,11.1,3.3c3.9,0,7.8-1.7,10-6.1l35-67.8C316.4,100.5,314.2,99.4,313.1,97.8z"/>
	<path class="st0" d="M403.6,220L403.6,220c1.1,0,2.2,0,3.3,0.6C405.9,220.5,404.7,220,403.6,220z"/>
	<path class="st0" d="M325.9,95.5c1.1,0,1.7-0.6,2.2-1.1C327.5,95,327,95,325.9,95.5L325.9,95.5z"/>
	<path class="st0" d="M403.6,237.2L403.6,237.2c0.6,0,1.1,0,1.1,0l0,0C404.2,237.2,404.2,237.2,403.6,237.2z"/>
	<path class="st0" d="M380.9,166.1c-0.6,0.6-1.7,0.6-2.8,0.6c-3.3,0-7.2-1.7-9.4-2.8l-8.9-17.2c-1.7,1.1-3.3,2.2-5.6,2.8l10,19.4
		c0,0,7.2,4.4,14.4,4.4c2.2,0,4.4-0.6,6.1-1.7l21.1-11.7c-1.1-1.7-2.2-3.9-2.8-5.6L380.9,166.1z"/>
	<path class="st0" d="M334.2,97.8c-1.7,1.7-3.3,2.8-5.6,3.3l11.7,22.8c1.7-1.1,3.3-2.2,5.6-2.8L334.2,97.8z"/>
	<path class="st0" d="M330.9,91.6c-0.6,1.1-1.7,2.2-2.8,2.8C329.2,93.3,330.3,92.8,330.9,91.6L330.9,91.6z"/>
	<path class="st0" d="M406.4,281.1l-2.8,3.3l0,0l0,0c-1.7,2.2-3.9,3.3-5.6,3.3c-0.6,0-0.6,0-0.6,0c-0.6-1.1-1.7-3.9,0-10.6l0,0l0,0
		l6.1-33.9l0,0c-2.2,0-4.4-0.6-6.1-1.1l-6.1,33.9c-2.8,13.3,1.7,18.3,7.2,18.3c3.3,0,7.8-2.2,10.6-6.1l2.8-3.3
		C409.7,284.4,408.1,282.8,406.4,281.1z"/>
	<path class="st0" d="M468.6,237.8c-1.7,1.1-3.9,1.7-6.1,2.2l2.8,10.6c1.7-1.1,3.9-2.2,6.1-2.8L468.6,237.8z"/>
	<path class="st0" d="M498.6,255.5l-10,2.2c0.6,1.7,0.6,2.8,0.6,4.4c0,0.6,0,1.1,0,2.2l10.6-2.2c-0.6-1.7-1.1-3.3-1.1-5.6
		C498.6,256.1,498.6,256.1,498.6,255.5z"/>
	<path class="st0" d="M448.1,232.8l-22.2,26.1c1.7,1.1,3.3,2.8,5,4.4l22.2-25.6C450.9,236.6,449.2,235,448.1,232.8z"/>
	<path class="st0" d="M174.7,251.1c2.2,1.7,3.9,3.3,5,5.6l4.4-16.7c-2.2,0-4.4-1.1-6.1-2.2L174.7,251.1z"/>
	<path class="st0" d="M215.3,251.6l-16.1-18.9c-1.1,1.7-2.8,3.3-4.4,4.4l16.1,18.3C211.4,254.4,213.1,252.8,215.3,251.6z"/>
	<path class="st0" d="M193.1,229.4c0.6-0.6,0.6-1.1,1.1-2.2l0,0C194.2,228.3,193.6,228.9,193.1,229.4z"/>
	<path class="st0" d="M552,243.3l-10.6,2.2l-15,3.3c1.1,1.7,1.7,3.9,1.7,6.1l14.4-3.3l-16.1,62.2c2.2,0,4.4,1.1,6.1,2.2l16.7-62.8
		L552,243.3z"/>
	<path class="st0" d="M193.1,229.4c-0.6,1.1-2.2,2.2-3.3,2.8l0,0C191.4,231.6,192.5,231.1,193.1,229.4z"/>
	<path class="st0" d="M229.2,269.4c0-0.6,0.6-0.6,0.6-1.1l0,0C229.7,268.9,229.2,269.4,229.2,269.4z"/>
	<path class="st0" d="M225.3,272.8c1.7-0.6,2.8-1.7,3.9-3.3C228.1,271.1,227,272.2,225.3,272.8z"/>
	<path class="st0" d="M409.2,214.4l8.9-48.3c-0.6,0-0.6,0-1.1,0c-1.7,0-3.9-0.6-5.6-1.1l-8.9,48.3c0.6,0,0.6,0,1.1,0
		C405.3,213.9,407.5,213.9,409.2,214.4z"/>
	<path class="st0" d="M245.3,151.6c0-8.3-6.7-15-15-15c-8.3,0-15,6.7-15,15c0,7.8,6.1,14.4,13.9,15c0.6,0,0.6,0,1.1,0
		c1.7,0,3.3-0.6,5-1.1c2.8-1.1,5-2.8,6.7-5c1.1-1.7,2.2-3.9,2.8-5.6C245.3,153.9,245.3,152.8,245.3,151.6z M236.4,157.8
		c-0.6,0.6-0.6,0.6-1.1,1.1c0,0-0.6,0-0.6,0.6c-0.6,0.6-1.7,0.6-2.2,1.1c-0.6,0-1.1,0-1.7,0c-4.4,0-8.3-3.9-8.3-8.3
		c0-4.4,3.9-8.3,8.3-8.3c0.6,0,1.1,0,1.7,0c1.1,0,2.2,0.6,3.3,1.1c0.6,0.6,1.1,0.6,1.1,1.1c0.6,0.6,1.7,1.7,1.7,2.8s0.6,2.2,0.6,3.3
		c0,1.1,0,2.2-0.6,3.3C238.1,156.1,237.5,156.6,236.4,157.8C236.4,157.2,236.4,157.8,236.4,157.8z"/>
	<path class="st0" d="M234.2,273.9c1.7-2.8,2.8-5.6,2.8-8.9c0-8.3-6.7-15-15-15c-2.8,0-5,0.6-7.2,1.7c-1.7,1.1-3.3,2.2-5,4.4
		c-1.7,2.2-2.8,5.6-2.8,8.9c0,8.3,6.7,15,15,15c2.8,0,5-0.6,7.2-1.7S233.1,275.5,234.2,273.9z M222,273.3L222,273.3
		c-4.4,0-8.3-3.9-8.3-8.3s3.9-8.3,8.3-8.3l0,0c1.1,0,2.2,0,3.3,0.6c1.7,0.6,2.8,1.7,3.9,3.3c1.1,1.1,1.7,2.8,1.7,5
		c0,1.7-0.6,2.8-1.1,3.9c0,0.6-0.6,0.6-0.6,1.1c-1.1,1.1-2.2,2.2-3.9,3.3h-0.6C224.2,273.3,223.1,273.3,222,273.3z"/>
	<path class="st0" d="M198.6,232.8c1.7-2.2,2.2-5,2.2-8.3c0-8.3-6.7-15-15-15c-8.3,0-15,6.7-15,15c0,5.6,2.8,10,7.2,12.8
		c1.7,1.1,3.9,1.7,6.1,2.2c0.6,0,1.1,0,1.7,0c2.8,0,5.6-1.1,7.8-2.2C195.9,236.1,197.5,235,198.6,232.8z M189.7,232.8
		c-1.1,0.6-2.2,0.6-3.3,0.6l0,0c-4.4,0-8.3-3.9-8.3-8.3c0-4.4,3.9-8.3,8.3-8.3l0,0c1.1,0,2.2,0,3.3,0.6c1.7,0.6,2.8,1.7,3.9,3.3
		c1.1,1.1,1.7,2.8,1.7,5c0,1.1,0,1.7-0.6,2.8c0,0.6-0.6,1.1-1.1,2.2C192.5,231.1,191.4,231.6,189.7,232.8L189.7,232.8z"/>
	<path class="st0" d="M174.7,251.1c-2.2-1.7-5-2.2-8.3-2.2c-6.1,0-11.1,3.3-13.3,8.3c-1.1,1.7-1.7,3.9-1.7,6.1c0,0,0,0,0,0.6
		c0,8.3,6.7,15,15,15c8.3,0,15-6.7,15-15c0-2.8-0.6-5-1.7-7.2C178.6,254.4,177,252.2,174.7,251.1z M170.3,271.1
		c-1.1,0.6-2.2,0.6-3.3,0.6l0,0c-4.4,0-8.3-3.9-8.3-8.3s3.9-8.3,8.3-8.3l0,0c1.1,0,2.2,0,3.3,0.6c1.1,0.6,2.2,1.1,2.8,2.2
		c0.6,0.6,0.6,0.6,0.6,1.1c1.1,1.1,1.7,2.8,1.7,5c0,0.6,0,1.1,0,1.7c0,1.1-0.6,2.2-1.1,3.3C173.1,269.4,171.4,270.5,170.3,271.1z"/>
	<path class="st0" d="M115.3,248.3c-0.6-7.8-7.2-13.3-15-13.3c-8.3,0-15,6.7-15,15c0,8.3,6.7,15,14.4,15c0,0,0,0,0.6,0
		c2.2,0,4.4-0.6,6.1-1.1c3.9-1.7,6.7-5,8.3-8.9c0.6-1.7,1.1-3.3,1.1-5C115.3,248.9,115.3,248.9,115.3,248.3z M100.3,258.3
		c-4.4,0-8.3-3.9-8.3-8.3c0-4.4,3.9-8.3,8.3-8.3c4.4,0,8.3,3.9,8.3,8.3C109.2,254.4,105.3,258.3,100.3,258.3z"/>
	<path class="st0" d="M106.4,327.2c0,8.3,6.7,15,15,15s15-6.7,15-15c0-8.3-6.7-15-15-15c-0.6,0-1.1,0-1.7,0c-2.2,0-4.4,1.1-6.1,2.2
		C109.7,317.2,106.4,321.6,106.4,327.2z M117,320c1.1-0.6,1.7-1.1,3.3-1.1c0.6,0,1.1,0,1.7,0c4.4,0,8.3,3.9,8.3,8.3
		s-3.9,8.3-8.3,8.3c-0.6,0-1.1,0-1.7,0c-1.1,0-2.2-0.6-3.3-1.1c-0.6-0.6-1.1-0.6-1.1-1.1c-0.6-0.6-1.7-1.7-1.7-2.8
		c-1.1-1.1-1.1-2.2-1.1-3.3c0-1.1,0-2.2,0.6-3.3c0.6-1.1,1.1-1.7,1.7-2.8C115.9,320.5,116.4,320.5,117,320z"/>
	<path class="st0" d="M364.7,135c0-8.3-6.7-15-15-15c-1.1,0-2.8,0-3.9,0.6c-2.2,0.6-3.9,1.7-5.6,2.8c-3.3,2.8-5.6,6.7-5.6,11.7
		c0,8.3,6.7,15,15,15c1.1,0,2.8,0,3.9-0.6c2.2-0.6,3.9-1.7,5.6-2.8C362.5,143.9,364.7,140,364.7,135z M349.7,143.9
		c-0.6,0-1.1,0-1.7,0c-1.1,0-2.2-0.6-3.3-1.1c-0.6-0.6-1.1-0.6-1.1-1.1c-0.6-0.6-1.7-1.7-1.7-2.8c-0.6-1.1-0.6-2.2-0.6-3.3
		c0-1.1,0-2.2,0.6-3.3c0.6-1.1,1.1-1.7,1.7-2.8c0.6-0.6,0.6-0.6,1.1-1.1c1.1-0.6,1.7-1.1,3.3-1.1c0.6,0,1.1,0,1.7,0
		c4.4,0,8.3,3.9,8.3,8.3C358.6,140,354.7,143.9,349.7,143.9z"/>
	<path class="st0" d="M417.5,166.1c7.8-0.6,13.9-7.2,13.9-15c0-8.3-6.7-15-15-15c-8.3,0-14.4,7.2-14.4,15c0,1.1,0,2.2,0.6,3.3
		c0.6,2.2,1.7,3.9,2.8,5.6c1.7,2.2,3.9,3.9,6.7,5C413.6,165.5,415.3,166.1,417.5,166.1C417,166.1,417.5,166.1,417.5,166.1z
		 M408.1,151.1c0-4.4,3.9-8.3,8.3-8.3s8.3,3.9,8.3,8.3s-3.9,8.3-8.3,8.3C412,160,408.1,156.1,408.1,151.1z"/>
	<path class="st0" d="M403.6,243.3c8.3,0,15-6.7,15-15c0-6.1-3.9-11.7-9.4-13.9c-1.7-0.6-3.3-1.1-5.6-1.1c-0.6,0-0.6,0-1.1,0
		c-7.8,0.6-13.9,7.2-13.9,15c0,6.1,3.9,11.1,8.9,13.9C399.2,243.3,401.4,243.3,403.6,243.3L403.6,243.3z M394.7,228.3
		c0-4.4,3.9-8.3,8.3-8.3l0,0c1.1,0,2.2,0,3.3,0.6c0.6,0,0.6,0.6,1.1,0.6c1.1,0.6,2.2,1.7,2.8,2.8c1.1,1.1,1.7,2.8,1.7,5
		s-0.6,3.3-1.7,5c-1.1,1.1-2.2,2.2-3.9,3.3c-0.6,0-1.1,0.6-2.2,0.6c-0.6,0-1.1,0-1.1,0l0,0C398.6,237.2,394.7,233.3,394.7,228.3z"/>
	<path class="st0" d="M425.9,258.9c-2.2-1.1-4.4-1.7-7.2-1.7c-8.3,0-15,6.7-15,15c0,3.3,1.1,6.7,3.3,8.9c1.1,1.7,2.8,3.3,5,3.9
		c2.2,1.1,4.4,1.7,7.2,1.7c8.3,0,15-6.7,15-15c0-3.3-1.1-6.1-2.8-8.9C429.2,261.6,427.5,260,425.9,258.9z M427,272.2
		c0,4.4-3.9,8.3-8.3,8.3c-0.6,0-1.1,0-1.7,0c-1.1,0-2.2-0.6-3.3-1.1c-0.6-0.6-1.1-0.6-1.1-1.1c-0.6-0.6-1.7-1.7-1.7-2.8
		c-0.6-1.1-0.6-2.2-0.6-3.3c0-1.1,0-2.2,0.6-3.3s1.1-1.7,1.7-2.8c0.6-0.6,0.6-0.6,1.1-1.1c1.1-0.6,1.7-1.1,3.3-1.1
		c0.6,0,1.1,0,1.7,0C423.1,263.3,427,267.2,427,272.2z"/>
	<path class="st0" d="M475.9,225c0-8.3-6.7-15-15-15c-8.3,0-15,6.7-15,15c0,2.8,1.1,5.6,2.2,8.3c1.1,1.7,2.8,3.3,4.4,4.4
		c2.2,1.7,5,2.2,7.8,2.2c0.6,0,1.1,0,1.7,0c2.2,0,4.4-1.1,6.1-2.2C473.1,235,475.9,230.5,475.9,225z M460.9,233.3
		c-0.6,0-1.1,0-1.7,0c-1.1,0-2.2-0.6-3.3-1.1c-0.6-0.6-1.1-0.6-1.1-1.1c-0.6-0.6-1.7-1.7-1.7-2.8c-0.6-1.1-0.6-2.2-0.6-3.3
		c0-1.1,0-2.2,0.6-3.3c0.6-1.1,1.1-1.7,1.7-2.8c0.6-0.6,0.6-0.6,1.1-1.1c1.1-0.6,1.7-1.1,3.3-1.1c0.6,0,1.1,0,1.7,0
		c4.4,0,8.3,3.9,8.3,8.3C469.2,229.4,465.3,233.3,460.9,233.3z"/>
	<path class="st0" d="M488.6,257.8c-1.7-6.1-7.8-10.6-14.4-10.6c-1.1,0-1.7,0-2.8,0c-2.2,0.6-4.4,1.1-6.1,2.8
		c-3.9,2.8-6.1,7.2-6.1,12.2c0,8.3,6.7,15,15,15c7.8,0,13.9-5.6,15-12.8c0-0.6,0-1.1,0-2.2C489.2,260.5,488.6,259.4,488.6,257.8z
		 M474.2,271.1c-0.6,0-1.1,0-1.7,0c-1.1,0-2.2-0.6-3.3-1.1c-0.6-0.6-1.1-0.6-1.1-1.1c-0.6-0.6-1.7-1.7-1.7-2.8
		c-0.6-1.1-0.6-2.2-0.6-3.3c0-1.1,0-2.2,0.6-3.3s1.1-1.7,1.7-2.8c0.6-0.6,0.6-0.6,1.1-1.1c1.1-0.6,1.7-1.1,3.3-1.1
		c0.6,0,1.1,0,1.7,0c4.4,0,8.3,3.9,8.3,8.3C482.5,267.2,478.6,271.1,474.2,271.1z"/>
	<path class="st0" d="M513.6,241.6c-7.8,0-14.4,6.1-15,13.9c0,0.6,0,0.6,0,1.1c0,1.7,0.6,3.9,1.1,5.6c2.2,5.6,7.8,9.4,13.9,9.4
		c8.3,0,15-6.7,15-15c0-0.6,0-0.6,0-1.1c0-2.2-0.6-4.4-1.7-6.1C523.6,244.4,519.2,241.6,513.6,241.6z M513.6,265c-0.6,0-1.1,0-1.7,0
		c-1.1,0-2.2-0.6-3.3-1.1c-0.6-0.6-1.1-0.6-1.1-1.1c-0.6-0.6-1.7-1.7-1.7-2.8c-0.6-1.1-0.6-2.2-0.6-3.3c0-1.1,0-2.2,0.6-3.3
		c0.6-1.1,1.1-1.7,1.7-2.8c0.6-0.6,0.6-0.6,1.1-1.1c1.1-0.6,1.7-1.1,3.3-1.1c0.6,0,1.1,0,1.7,0c4.4,0,8.3,3.9,8.3,8.3
		C522,261.1,518.1,265,513.6,265z"/>
	<path class="st0" d="M524.7,314.4c-8.3,0-15,6.7-15,15c0,8.3,6.7,15,15,15c8.3,0,15-6.7,15-15c0-5.6-2.8-10-7.2-12.8
		c-1.7-1.1-3.9-1.7-6.1-2.2C525.9,314.4,525.3,314.4,524.7,314.4z M533.1,329.4c0,4.4-3.9,8.3-8.3,8.3s-8.3-3.9-8.3-8.3
		s3.9-8.3,8.3-8.3C529.7,321.1,533.1,324.4,533.1,329.4z"/>
	<g>
		<path class="st0" d="M-65.8,562.2h0.6c0,0,0.6,0,0.6,0.6l3.3,3.3c-1.1,1.7-3.3,3.3-5,3.9c-2.2,1.1-4.4,1.1-7.2,1.1s-5-0.6-6.7-1.1
			c-1.7-0.6-3.9-2.2-5-3.9c-1.7-1.7-2.8-3.3-3.3-5.6c-0.6-2.2-1.1-4.4-1.1-6.7c0-2.8,0.6-5,1.1-7.2s2.2-3.9,3.9-5.6
			c1.7-1.7,3.3-2.8,5.6-3.3c2.2-1.1,4.4-1.1,7.2-1.1c1.1,0,2.2,0,3.3,0.6c1.1,0,2.2,0.6,3.3,1.1s1.7,1.1,2.8,1.7
			c0.6,0.6,1.7,1.1,2.2,1.7L-63,545l-0.6,0.6c0,0-0.6,0-1.1,0s-0.6,0-0.6,0s-0.6,0-0.6-0.6c0,0-0.6-0.6-1.1-0.6s-0.6-0.6-1.1-0.6
			s-1.1-0.6-1.7-0.6c-0.6,0-1.1,0-2.2,0c-1.7,0-2.8,0-3.9,0.6s-2.2,1.1-2.8,2.2c-1.1,1.1-1.7,2.2-2.2,3.3s-0.6,2.8-0.6,4.4
			s0,3.3,0.6,4.4c0.6,1.1,1.1,2.2,1.7,3.3c0.6,1.1,1.7,1.7,2.8,2.2s2.2,0.6,3.3,0.6c0.6,0,1.1,0,2.2,0c0.6,0,1.1,0,1.7-0.6
			c0.6,0,1.1-0.6,1.7-0.6c0.6,0,1.1-0.6,1.1-1.1l0.6-0.6C-66.4,562.8-65.8,562.2-65.8,562.2z"/>
		<path class="st0" d="M-15.3,554.4c0,2.2-0.6,4.4-1.1,6.7c-1.1,2.2-2.2,3.9-3.3,5.6c-1.7,1.7-3.3,2.8-5.6,3.9
			c-2.2,1.1-4.4,1.1-7.2,1.1s-5-0.6-7.2-1.1c-2.2-0.6-3.9-2.2-5.6-3.9c-1.7-1.7-2.8-3.3-3.3-5.6c-1.1-2.2-1.1-4.4-1.1-6.7
			c0-2.2,0.6-4.4,1.1-6.7c1.1-2.2,2.2-3.9,3.3-5.6c1.7-1.7,3.3-2.8,5.6-3.9c2.2-1.1,4.4-1.1,7.2-1.1s5,0.6,7.2,1.1
			c2.2,1.1,3.9,2.2,5.6,3.9c1.7,1.7,2.8,3.3,3.3,5.6C-15.8,549.4-15.3,551.6-15.3,554.4z M-23.6,554.4c0-1.7,0-3.3-0.6-4.4
			c-0.6-1.1-1.1-2.2-1.7-3.3c-0.6-1.1-1.7-1.7-2.8-2.2c-1.1-0.6-2.8-0.6-3.9-0.6c-1.7,0-2.8,0-3.9,0.6s-2.2,1.1-2.8,2.2
			c-0.6,1.1-1.7,2.2-1.7,3.3c-0.6,1.1-0.6,2.8-0.6,4.4s0,3.3,0.6,4.4c0.6,1.1,1.1,2.2,1.7,3.3c0.6,1.1,1.7,1.7,2.8,2.2
			c1.1,0.6,2.8,0.6,3.9,0.6c1.7,0,2.8,0,3.9-0.6c1.1-0.6,2.2-1.1,2.8-2.2c0.6-1.1,1.7-2.2,1.7-3.3
			C-23.6,557.8-23.6,556.1-23.6,554.4z"/>
		<path class="st0" d="M27.5,571.1h-6.1c-0.6,0-1.1,0-1.7-0.6c-0.6-0.6-0.6-0.6-1.1-1.1l-2.2-6.1H3.6l-2.2,6.1
			c0,0.6-0.6,0.6-1.1,1.1c-0.6,0.6-1.1,0.6-1.7,0.6h-6.1l13.3-33.9h7.8L27.5,571.1z M5.9,558.3h9.4l-3.3-9.4c0-0.6-0.6-1.1-0.6-2.2
			c0-0.6-0.6-1.7-0.6-2.8c0,1.1-0.6,1.7-0.6,2.8c0,0.6-0.6,1.7-0.6,2.2L5.9,558.3z"/>
		<path class="st0" d="M58.6,544.4c0,0.6-0.6,0.6-0.6,1.1c0,0-0.6,0-1.1,0c-0.6,0-0.6,0-1.1-0.6c-0.6,0-1.1-0.6-1.7-0.6
			c-0.6-0.6-1.1-0.6-1.7-0.6c-0.6,0-1.7-0.6-2.2-0.6c-1.7,0-2.8,0.6-3.3,1.1c-0.6,0.6-1.1,1.7-1.1,2.8c0,0.6,0,1.1,0.6,1.7
			c0.6,0.6,1.1,1.1,1.7,1.1c0.6,0.6,1.7,0.6,2.2,1.1c1.1,0,1.7,0.6,2.8,1.1s1.7,0.6,2.8,1.1s1.7,1.1,2.2,1.7
			c0.6,0.6,1.1,1.7,1.7,2.8s0.6,2.2,0.6,3.3c0,1.7,0,2.8-0.6,4.4c-0.6,1.1-1.1,2.8-2.2,3.3c-1.1,1.1-2.2,1.7-3.9,2.2
			c-1.7,0.6-3.3,1.1-5,1.1c-1.1,0-2.2,0-3.3-0.6c-1.1,0-2.2-0.6-3.3-1.1c-1.1-0.6-2.2-1.1-2.8-1.7c-1.1-0.6-1.7-1.1-2.2-1.7l2.2-3.9
			c0-0.6,0.6-0.6,0.6-0.6c0.6,0,0.6,0,1.1,0c0.6,0,1.1,0,1.7,0.6c0.6,0.6,1.1,0.6,1.7,1.1s1.1,0.6,2.2,1.1c0.6,0.6,1.7,0.6,2.8,0.6
			c1.7,0,2.8-0.6,3.3-1.1c0.6-0.6,1.1-1.7,1.1-2.8c0-0.6,0-1.7-0.6-1.7c-0.6-0.6-1.1-1.1-1.7-1.1c-0.6-0.6-1.7-0.6-2.2-1.1
			c-1.1,0-1.7-0.6-2.8-0.6c-1.1-0.6-1.7-0.6-2.8-1.1c-1.1-0.6-1.7-1.1-2.2-1.7c-0.6-0.6-1.1-1.7-1.7-2.8c-0.6-1.1-0.6-2.2-0.6-3.9
			c0-1.1,0-2.8,0.6-3.9c0.6-1.1,1.1-2.2,2.2-3.3s2.2-1.7,3.9-2.2s3.3-1.1,5-1.1c1.1,0,2.2,0,2.8,0c1.1,0,1.7,0.6,2.8,0.6
			c1.1,0.6,1.7,0.6,2.2,1.1c0.6,0.6,1.7,1.1,2.2,1.7L58.6,544.4z"/>
		<path class="st0" d="M98.6,537.2v6.1h-9.4v27.8h-7.8v-27.8H72v-6.1H98.6z"/>
		<path class="st0" d="M154.2,537.2v6.1h-9.4v27.8H137v-27.8h-9.4v-6.1H154.2z"/>
		<path class="st0" d="M198.6,554.4c0,2.2-0.6,4.4-1.1,6.7c-1.1,2.2-2.2,3.9-3.3,5.6c-1.7,1.7-3.3,2.8-5.6,3.9
			c-2.2,1.1-4.4,1.1-7.2,1.1c-2.8,0-5-0.6-7.2-1.1c-2.2-1.1-3.9-2.2-5.6-3.9c-1.7-1.7-2.8-3.3-3.3-5.6c-1.1-2.2-1.1-4.4-1.1-6.7
			c0-2.2,0.6-4.4,1.1-6.7c1.1-2.2,2.2-3.9,3.3-5.6c1.7-1.7,3.3-2.8,5.6-3.9c2.2-1.1,4.4-1.1,7.2-1.1c2.8,0,5,0.6,7.2,1.1
			c2.2,1.1,3.9,2.2,5.6,3.9c1.7,1.7,2.8,3.3,3.3,5.6C198.1,549.4,198.6,551.6,198.6,554.4z M190.3,554.4c0-1.7,0-3.3-0.6-4.4
			c-0.6-1.1-1.1-2.2-1.7-3.3c-0.6-1.1-1.7-1.7-2.8-2.2c-1.1-0.6-2.8-0.6-3.9-0.6c-1.7,0-2.8,0-3.9,0.6s-2.2,1.1-2.8,2.2
			c-0.6,1.1-1.7,2.2-1.7,3.3c-0.6,1.1-0.6,2.8-0.6,4.4s0,3.3,0.6,4.4c0.6,1.1,1.1,2.2,1.7,3.3c0.6,1.1,1.7,1.7,2.8,2.2
			c1.1,0.6,2.8,0.6,3.9,0.6c1.7,0,2.8,0,3.9-0.6c1.1-0.6,2.2-1.1,2.8-2.2c0.6-1.1,1.7-2.2,1.7-3.3
			C190.3,557.8,190.3,556.1,190.3,554.4z"/>
		<path class="st0" d="M252.5,562.2h0.6c0,0,0.6,0,0.6,0.6l3.3,3.3c-1.1,1.7-3.3,3.3-5,3.9c-2.2,1.1-4.4,1.1-7.2,1.1
			c-2.8,0-5-0.6-6.7-1.1c-1.7-0.6-3.9-2.2-5-3.9c-1.7-1.7-2.8-3.3-3.3-5.6c-0.6-2.2-1.1-4.4-1.1-6.7c0-2.8,0.6-5,1.1-7.2
			c0.6-2.2,2.2-3.9,3.9-5.6c1.7-1.7,3.3-2.8,5.6-3.3c2.2-1.1,4.4-1.1,7.2-1.1c1.1,0,2.2,0,3.3,0.6c1.1,0,2.2,0.6,3.3,1.1
			s1.7,1.1,2.8,1.7c0.6,0.6,1.7,1.1,2.2,1.7l-2.8,3.3l-0.6,0.6c0,0-0.6,0-1.1,0s-0.6,0-0.6,0s-0.6,0-0.6-0.6c0,0-0.6-0.6-1.1-0.6
			c-0.6,0-0.6-0.6-1.1-0.6s-1.1-0.6-1.7-0.6c-0.6,0-1.1,0-2.2,0c-1.7,0-2.8,0-3.9,0.6s-2.2,1.1-2.8,2.2c-1.1,1.1-1.7,2.2-2.2,3.3
			c-0.6,1.1-0.6,2.8-0.6,4.4s0,3.3,0.6,4.4c0.6,1.1,1.1,2.2,1.7,3.3c0.6,1.1,1.7,1.7,2.8,2.2c1.1,0.6,2.2,0.6,3.3,0.6
			c0.6,0,1.1,0,2.2,0c0.6,0,1.1,0,1.7-0.6c0.6,0,1.1-0.6,1.7-0.6c0.6,0,1.1-0.6,1.1-1.1l0.6-0.6C252,562.8,252.5,562.2,252.5,562.2z
			"/>
		<path class="st0" d="M303.1,554.4c0,2.2-0.6,4.4-1.1,6.7c-1.1,2.2-2.2,3.9-3.3,5.6c-1.7,1.7-3.3,2.8-5.6,3.9
			c-2.2,1.1-4.4,1.1-7.2,1.1s-5-0.6-7.2-1.1c-2.2-1.1-3.9-2.2-5.6-3.9s-2.8-3.3-3.3-5.6c-1.1-2.2-1.1-4.4-1.1-6.7
			c0-2.2,0.6-4.4,1.1-6.7c1.1-2.2,2.2-3.9,3.3-5.6c1.7-1.7,3.3-2.8,5.6-3.9c2.2-1.1,4.4-1.1,7.2-1.1s5,0.6,7.2,1.1
			c2.2,1.1,3.9,2.2,5.6,3.9c1.7,1.7,2.8,3.3,3.3,5.6C302.5,549.4,303.1,551.6,303.1,554.4z M294.7,554.4c0-1.7,0-3.3-0.6-4.4
			c-0.6-1.1-1.1-2.2-1.7-3.3c-0.6-1.1-1.7-1.7-2.8-2.2c-1.1-0.6-2.8-0.6-3.9-0.6c-1.7,0-2.8,0-3.9,0.6c-1.1,0.6-2.2,1.1-2.8,2.2
			c-0.6,1.1-1.7,2.2-1.7,3.3c-0.6,1.1-0.6,2.8-0.6,4.4s0,3.3,0.6,4.4c0.6,1.1,1.1,2.2,1.7,3.3c0.6,1.1,1.7,1.7,2.8,2.2
			c1.1,0.6,2.8,0.6,3.9,0.6c1.7,0,2.8,0,3.9-0.6c1.1-0.6,2.2-1.1,2.8-2.2c0.6-1.1,1.7-2.2,1.7-3.3
			C294.7,557.8,294.7,556.1,294.7,554.4z"/>
		<path class="st0" d="M345.9,571.1h-6.1c-0.6,0-1.1,0-1.7-0.6c-0.6-0.6-0.6-0.6-1.1-1.1l-2.2-6.1H322l-2.2,6.1
			c0,0.6-0.6,0.6-1.1,1.1s-1.1,0.6-1.7,0.6h-6.1l13.3-33.9h7.8L345.9,571.1z M324.2,558.3h9.4l-3.3-9.4c0-0.6-0.6-1.1-0.6-2.2
			c0-0.6-0.6-1.7-0.6-2.8c0,1.1-0.6,1.7-0.6,2.8c0,0.6-0.6,1.7-0.6,2.2L324.2,558.3z"/>
		<path class="st0" d="M377,544.4c0,0.6-0.6,0.6-0.6,1.1c0,0-0.6,0-1.1,0c-0.6,0-0.6,0-1.1-0.6c-0.6,0-1.1-0.6-1.7-0.6
			c-0.6-0.6-1.1-0.6-1.7-0.6c-0.6,0-1.7-0.6-2.2-0.6c-1.7,0-2.8,0.6-3.3,1.1s-1.1,1.7-1.1,2.8c0,0.6,0,1.1,0.6,1.7
			c0.6,0.6,1.1,1.1,1.7,1.1c0.6,0.6,1.7,0.6,2.2,1.1c1.1,0,1.7,0.6,2.8,1.1s1.7,0.6,2.8,1.1s1.7,1.1,2.2,1.7
			c0.6,0.6,1.1,1.7,1.7,2.8c0.6,1.1,0.6,2.2,0.6,3.3c0,1.7,0,2.8-0.6,4.4c-0.6,1.1-1.1,2.8-2.2,3.3c-1.1,1.1-2.2,1.7-3.9,2.2
			c-1.7,0.6-3.3,1.1-5,1.1c-1.1,0-2.2,0-3.3-0.6c-1.1,0-2.2-0.6-3.3-1.1c-1.1-0.6-2.2-1.1-2.8-1.7c-1.1-0.6-1.7-1.1-2.2-1.7l2.2-3.9
			c0-0.6,0.6-0.6,0.6-0.6c0.6,0,0.6,0,1.1,0s1.1,0,1.7,0.6c0.6,0.6,1.1,0.6,1.7,1.1s1.1,0.6,2.2,1.1c0.6,0.6,1.7,0.6,2.8,0.6
			c1.7,0,2.8-0.6,3.3-1.1s1.1-1.7,1.1-2.8c0-0.6,0-1.7-0.6-1.7c-0.6-0.6-1.1-1.1-1.7-1.1c-0.6-0.6-1.7-0.6-2.2-1.1
			c-1.1,0-1.7-0.6-2.8-0.6c-1.1-0.6-1.7-0.6-2.8-1.1s-1.7-1.1-2.2-1.7c-0.6-0.6-1.1-1.7-1.7-2.8c-0.6-1.1-0.6-2.2-0.6-3.9
			c0-1.1,0-2.8,0.6-3.9s1.1-2.2,2.2-3.3c1.1-1.1,2.2-1.7,3.9-2.2s3.3-1.1,5-1.1c1.1,0,2.2,0,2.8,0c1.1,0,1.7,0.6,2.8,0.6
			c1.1,0.6,1.7,0.6,2.2,1.1c0.6,0.6,1.7,1.1,2.2,1.7L377,544.4z"/>
		<path class="st0" d="M417,537.2v6.1h-9.4v27.8h-7.8v-27.8h-9.4v-6.1H417z"/>
		<path class="st0" d="M472.5,537.2v6.1h-9.4v27.8h-7.8v-27.8h-9.4v-6.1H472.5z"/>
		<path class="st0" d="M517,554.4c0,2.2-0.6,4.4-1.1,6.7c-1.1,2.2-2.2,3.9-3.3,5.6c-1.7,1.7-3.3,2.8-5.6,3.9
			c-2.2,1.1-4.4,1.1-7.2,1.1c-2.8,0-5-0.6-7.2-1.1c-2.2-1.1-3.9-2.2-5.6-3.9s-2.8-3.3-3.3-5.6c-1.1-2.2-1.1-4.4-1.1-6.7
			c0-2.2,0.6-4.4,1.1-6.7c1.1-2.2,2.2-3.9,3.3-5.6c1.7-1.7,3.3-2.8,5.6-3.9c2.2-1.1,4.4-1.1,7.2-1.1c2.8,0,5,0.6,7.2,1.1
			c2.2,1.1,3.9,2.2,5.6,3.9c1.7,1.7,2.8,3.3,3.3,5.6C516.4,549.4,517,551.6,517,554.4z M509.2,554.4c0-1.7,0-3.3-0.6-4.4
			c-0.6-1.1-1.1-2.2-1.7-3.3c-0.6-1.1-1.7-1.7-2.8-2.2c-1.1-0.6-2.8-0.6-3.9-0.6c-1.7,0-2.8,0-3.9,0.6c-1.1,0.6-2.2,1.1-2.8,2.2
			c-0.6,1.1-1.7,2.2-1.7,3.3c-0.6,1.1-0.6,2.8-0.6,4.4s0,3.3,0.6,4.4c0.6,1.1,1.1,2.2,1.7,3.3c0.6,1.1,1.7,1.7,2.8,2.2
			c1.1,0.6,2.8,0.6,3.9,0.6c1.7,0,2.8,0,3.9-0.6c1.1-0.6,2.2-1.1,2.8-2.2c0.6-1.1,1.7-2.2,1.7-3.3S509.2,556.1,509.2,554.4z"/>
		<path class="st0" d="M570.9,562.2h0.6c0,0,0.6,0,0.6,0.6l3.3,3.3c-1.1,1.7-3.3,3.3-5,3.9c-2.2,1.1-4.4,1.1-7.2,1.1s-5-0.6-6.7-1.1
			c-1.7-0.6-3.9-2.2-5-3.9c-1.7-1.7-2.8-3.3-3.3-5.6c-0.6-2.2-1.1-4.4-1.1-6.7c0-2.8,0.6-5,1.1-7.2s2.2-3.9,3.9-5.6s3.3-2.8,5.6-3.3
			c2.2-1.1,4.4-1.1,7.2-1.1c1.1,0,2.2,0,3.3,0.6c1.1,0,2.2,0.6,3.3,1.1c1.1,0.6,1.7,1.1,2.8,1.7c0.6,0.6,1.7,1.1,2.2,1.7l-2.8,3.3
			l-0.6,0.6c0,0-0.6,0-1.1,0h-0.6c0,0-0.6,0-0.6-0.6c-0.6,0-0.6-0.6-1.1-0.6c-0.6,0-0.6-0.6-1.1-0.6c-0.6,0-1.1-0.6-1.7-0.6
			s-1.1,0-2.2,0c-1.7,0-2.8,0-3.9,0.6c-1.1,0.6-2.2,1.1-2.8,2.2c-1.1,1.1-1.7,2.2-2.2,3.3c-0.6,1.1-0.6,2.8-0.6,4.4s0,3.3,0.6,4.4
			c0.6,1.1,1.1,2.2,1.7,3.3s1.7,1.7,2.8,2.2s2.2,0.6,3.3,0.6c0.6,0,1.1,0,2.2,0c0.6,0,1.1,0,1.7-0.6c0.6,0,1.1-0.6,1.7-0.6
			s1.1-0.6,1.1-1.1l0.6-0.6C570.3,562.8,570.9,562.2,570.9,562.2z"/>
		<path class="st0" d="M621.4,554.4c0,2.2-0.6,4.4-1.1,6.7c-1.1,2.2-2.2,3.9-3.3,5.6c-1.7,1.7-3.3,2.8-5.6,3.9
			c-2.2,1.1-4.4,1.1-7.2,1.1s-5-0.6-7.2-1.1c-2.2-1.1-3.9-2.2-5.6-3.9s-2.8-3.3-3.3-5.6c-1.1-2.2-1.1-4.4-1.1-6.7
			c0-2.2,0.6-4.4,1.1-6.7c1.1-2.2,2.2-3.9,3.3-5.6c1.7-1.7,3.3-2.8,5.6-3.9s4.4-1.1,7.2-1.1s5,0.6,7.2,1.1c2.2,1.1,3.9,2.2,5.6,3.9
			s2.8,3.3,3.3,5.6C620.9,549.4,621.4,551.6,621.4,554.4z M613.1,554.4c0-1.7,0-3.3-0.6-4.4c-0.6-1.1-1.1-2.2-1.7-3.3
			c-0.6-1.1-1.7-1.7-2.8-2.2c-1.1-0.6-2.8-0.6-3.9-0.6c-1.7,0-2.8,0-3.9,0.6s-2.2,1.1-2.8,2.2c-0.6,1.1-1.7,2.2-1.7,3.3
			c-0.6,1.1-0.6,2.8-0.6,4.4s0,3.3,0.6,4.4c0.6,1.1,1.1,2.2,1.7,3.3c0.6,1.1,1.7,1.7,2.8,2.2c1.1,0.6,2.8,0.6,3.9,0.6
			c1.7,0,2.8,0,3.9-0.6c1.1-0.6,2.2-1.1,2.8-2.2c0.6-1.1,1.7-2.2,1.7-3.3C613.1,557.8,613.1,556.1,613.1,554.4z"/>
		<path class="st0" d="M664.7,571.1h-6.1c-0.6,0-1.1,0-1.7-0.6c-0.6-0.6-0.6-0.6-1.1-1.1l-2.2-6.1h-12.8l-2.2,6.1
			c0,0.6-0.6,0.6-1.1,1.1c-0.6,0.6-1.1,0.6-1.7,0.6h-6.1l13.3-33.9h7.8L664.7,571.1z M642.5,558.3h9.4l-3.3-9.4
			c0-0.6-0.6-1.1-0.6-2.2c0-0.6-0.6-1.7-0.6-2.8c0,1.1-0.6,1.7-0.6,2.8c0,0.6-0.6,1.7-0.6,2.2L642.5,558.3z"/>
		<path class="st0" d="M695.3,544.4c0,0.6-0.6,0.6-0.6,1.1c0,0-0.6,0-1.1,0c-0.6,0-0.6,0-1.1-0.6c-0.6,0-1.1-0.6-1.7-0.6
			c-0.6-0.6-1.1-0.6-1.7-0.6c-0.6,0-1.7-0.6-2.2-0.6c-1.7,0-2.8,0.6-3.3,1.1c-0.6,0.6-1.1,1.7-1.1,2.8c0,0.6,0,1.1,0.6,1.7
			c0.6,0.6,1.1,1.1,1.7,1.1c0.6,0.6,1.7,0.6,2.2,1.1c1.1,0,1.7,0.6,2.8,1.1c1.1,0.6,1.7,0.6,2.8,1.1c1.1,0.6,1.7,1.1,2.2,1.7
			c0.6,0.6,1.1,1.7,1.7,2.8s0.6,2.2,0.6,3.3c0,1.7,0,2.8-0.6,4.4c-0.6,1.1-1.1,2.8-2.2,3.3c-1.1,1.1-2.2,1.7-3.9,2.2
			c-1.7,0.6-3.3,1.1-5,1.1c-1.1,0-2.2,0-3.3-0.6c-1.1,0-2.2-0.6-3.3-1.1c-1.1-0.6-2.2-1.1-2.8-1.7c-1.1-0.6-1.7-1.1-2.2-1.7l2.2-3.9
			c0-0.6,0.6-0.6,0.6-0.6c0.6,0,0.6,0,1.1,0c0.6,0,1.1,0,1.7,0.6c0.6,0.6,1.1,0.6,1.7,1.1c0.6,0.6,1.1,0.6,2.2,1.1
			c0.6,0.6,1.7,0.6,2.8,0.6c1.7,0,2.8-0.6,3.3-1.1s1.1-1.7,1.1-2.8c0-0.6,0-1.7-0.6-1.7c-0.6-0.6-1.1-1.1-1.7-1.1
			c-0.6-0.6-1.7-0.6-2.2-1.1c-1.1,0-1.7-0.6-2.8-0.6c-1.1-0.6-1.7-0.6-2.8-1.1s-1.7-1.1-2.2-1.7c-0.6-0.6-1.1-1.7-1.7-2.8
			c-0.6-1.1-0.6-2.2-0.6-3.9c0-1.1,0-2.8,0.6-3.9c0.6-1.1,1.1-2.2,2.2-3.3s2.2-1.7,3.9-2.2s3.3-1.1,5-1.1c1.1,0,2.2,0,2.8,0
			c1.1,0,1.7,0.6,2.8,0.6c1.1,0.6,1.7,0.6,2.2,1.1c0.6,0.6,1.7,1.1,2.2,1.7L695.3,544.4z"/>
		<path class="st0" d="M735.3,537.2v6.1h-9.4v27.8h-7.8v-27.8h-9.4v-6.1H735.3z"/>
	</g>
	<path class="st0" d="M334.2,97.8c2.8-2.8,4.4-6.7,4.4-10.6c0-8.3-6.7-15-15-15s-15,6.7-15,15c0,3.9,1.7,7.8,4.4,10.6
		c1.7,1.7,3.3,2.8,5.6,3.3c1.7,0.6,3.3,1.1,5,1.1s3.9-0.6,5-1.1C330.9,100.5,332.5,99.4,334.2,97.8z M328.1,94.4
		c-0.6,0.6-1.7,1.1-2.2,1.1s-1.7,0.6-2.2,0.6s-1.7,0-2.2-0.6c-1.1,0-1.7-0.6-2.2-1.1c-0.6-0.6-1.7-1.1-2.2-2.2
		c-0.6-0.6-0.6-1.1-1.1-1.7c-0.6-1.1-0.6-2.2-0.6-3.3l0,0c0-4.4,3.9-8.3,8.3-8.3c2.8,0,5.6,1.7,6.7,3.3c0.6,0.6,0.6,1.1,1.1,1.7
		c0.6,1.1,0.6,2.2,0.6,3.3l0,0c0,1.1,0,2.2-0.6,3.3c0,0.6-0.6,0.6-0.6,0.6C330.3,92.8,329.2,93.3,328.1,94.4z"/>
</g>
</svg>
